<?xml version="1.0" standalone="no"?>
<!DOCTYPE svg PUBLIC "-//W3C//DTD SVG 20010904//EN"
 "http://www.w3.org/TR/2001/REC-SVG-20010904/DTD/svg10.dtd">
<svg version="1.0" xmlns="http://www.w3.org/2000/svg"
 width="1201.000000pt" height="1201.000000pt" viewBox="0 0 1201.000000 1201.000000"
 preserveAspectRatio="xMidYMid meet">
<metadata>
Created by potrace 1.11, written by Peter Selinger 2001-2013
</metadata>
<g transform="translate(0.000000,1201.000000) scale(0.100000,-0.100000)"
fill="#000000" stroke="none">
<path d="M5745 12003 c-1580 -76 -3038 -744 -4109 -1881 -1755 -1864 -2136
-4632 -950 -6900 768 -1469 2125 -2565 3718 -3002 1068 -293 2161 -291 3220 5
1393 390 2598 1269 3391 2475 150 228 253 408 375 655 339 691 526 1369 602
2185 16 175 16 755 0 930 -76 820 -264 1498 -607 2195 -859 1740 -2501 2954
-4415 3264 -404 66 -847 93 -1225 74z m4905 -3184 c74 -5 158 -12 185 -16 49
-6 47 -7 -78 -30 -637 -116 -1730 -740 -2802 -1597 -351 -281 -633 -532 -940
-840 -327 -327 -486 -513 -1011 -1181 -295 -376 -452 -568 -603 -740 -647
-734 -1243 -1118 -1941 -1250 -220 -41 -542 -57 -735 -35 -390 45 -767 206
-1065 455 -93 79 -258 247 -332 340 -348 438 -595 1103 -615 1655 -26 724 338
1370 994 1760 257 153 551 254 846 291 142 17 444 7 569 -20 485 -105 843
-399 1038 -856 78 -182 135 -414 155 -635 l7 -75 -41 81 c-127 251 -483 445
-889 485 -128 13 -263 1 -384 -32 -195 -54 -358 -187 -441 -360 -124 -258
-129 -600 -12 -832 158 -312 514 -496 887 -457 408 43 768 232 1181 622 174
164 318 321 708 770 412 476 563 641 815 888 303 297 520 475 834 685 375 251
731 423 1206 585 827 281 1668 397 2464 339z m-290 -766 c-789 -911 -1268
-1775 -1350 -2433 -13 -106 -13 -323 0 -415 67 -468 365 -837 888 -1097 67
-34 121 -63 119 -65 -11 -10 -227 -78 -331 -103 -309 -76 -572 -86 -791 -30
-272 69 -485 252 -596 510 -82 190 -104 317 -103 585 1 298 37 503 144 825
287 860 910 1639 1705 2130 82 51 408 220 413 215 2 -2 -42 -57 -98 -122z"/>
</g>
</svg>
